<svg xmlns="http://www.w3.org/2000/svg" xmlns:xlink="http://www.w3.org/1999/xlink" width="500" zoomAndPan="magnify" viewBox="0 0 375 374.999991" height="500" preserveAspectRatio="xMidYMid meet" version="1.0"><defs><g/><clipPath id="be6b56b337"><path d="M 89 57 L 290 57 L 290 323 L 89 323 Z M 89 57 " clip-rule="nonzero"/></clipPath><clipPath id="99627bd798"><path d="M 300.878906 282.539062 L 138.9375 327.253906 L 74.0625 92.296875 L 236 47.582031 Z M 300.878906 282.539062 " clip-rule="nonzero"/></clipPath><clipPath id="28745a1b75"><path d="M 138.949219 327.253906 L 300.890625 282.539062 L 236.011719 47.578125 L 74.070312 92.292969 Z M 138.949219 327.253906 " clip-rule="nonzero"/></clipPath></defs><g clip-path="url(#be6b56b337)"><g clip-path="url(#99627bd798)"><g clip-path="url(#28745a1b75)"><path fill="#ffffff" d="M 152.65625 322.273438 C 151.203125 322.273438 149.367188 321.59375 148.214844 320.625 C 147.386719 319.925781 140.277344 312.273438 139.960938 311.734375 C 139.277344 310.574219 139.4375 309.066406 140.433594 307.324219 C 141.667969 305.167969 141.324219 305.394531 154.253906 298.171875 C 160.414062 294.730469 173.359375 287.496094 183.03125 282.09375 C 192.699219 276.6875 204.1875 270.269531 208.5625 267.824219 L 216.511719 263.382812 L 174.882812 274.8125 L 133.25 286.246094 L 132.261719 286.164062 C 129.328125 285.929688 127.238281 284.378906 126.445312 281.851562 C 126.101562 280.757812 89.578125 96.25 89.367188 94.527344 C 89.019531 91.753906 90.289062 88.980469 92.539062 87.582031 C 93.371094 87.066406 200.460938 57.464844 201.53125 57.457031 C 204.0625 57.4375 206.425781 58.933594 207.667969 61.34375 C 207.898438 61.789062 221.457031 99.507812 238.773438 147.863281 C 255.65625 195.011719 269.511719 233.609375 269.5625 233.640625 C 269.613281 233.667969 271.578125 232.609375 273.933594 231.289062 C 278.199219 228.894531 278.214844 228.886719 279.710938 228.476562 C 282.347656 227.757812 284.609375 228.132812 285.804688 229.492188 C 286.320312 230.085938 289.410156 241.070312 289.464844 242.523438 C 289.554688 244.828125 288.507812 247.003906 286.671875 248.335938 C 286.273438 248.625 247.667969 270.273438 241.882812 273.453125 C 241.644531 273.582031 241.644531 273.652344 241.917969 274.640625 C 243.082031 278.898438 242.578125 283.3125 240.609375 286.0625 C 239.566406 287.523438 238.761719 288.109375 234.484375 290.550781 C 221.414062 298.015625 216.308594 300.867188 215.449219 301.1875 C 211.417969 302.6875 206.359375 301 202.25 296.777344 C 201.851562 296.371094 201.503906 296.046875 201.472656 296.054688 C 201.441406 296.0625 195.5625 299.34375 188.40625 303.339844 C 152.222656 323.558594 155.785156 321.605469 154.464844 321.957031 C 153.8125 322.132812 153 322.273438 152.65625 322.273438 M 158.789062 269.5 C 161.839844 267.710938 164.511719 262.636719 164.0625 259.488281 C 163.757812 257.347656 126.054688 92.753906 125.71875 92.101562 C 122.714844 86.242188 113.917969 88.683594 114.03125 95.347656 C 114.054688 96.582031 147.238281 264.273438 147.59375 264.941406 C 149.511719 268.539062 155.953125 271.160156 158.789062 269.5 M 200.617188 256.917969 C 203.121094 255.488281 205.1875 252.886719 205.386719 250.910156 L 205.464844 250.136719 L 181.15625 166.570312 C 157.046875 83.679688 156.847656 83 156.382812 82.292969 C 152.59375 76.511719 143.859375 80.015625 145.0625 86.832031 C 145.222656 87.753906 185.832031 243.160156 188.382812 252.625 L 188.992188 254.882812 L 189.59375 255.5625 C 191.9375 258.199219 197.226562 258.847656 200.617188 256.917969 M 240.894531 244.351562 C 244.523438 242.5 246.714844 239.179688 245.957031 236.695312 C 245.234375 234.335938 188.414062 75.769531 188.050781 75.101562 C 186.585938 72.414062 183.585938 71.03125 180.863281 71.785156 C 178.054688 72.558594 175.996094 75.464844 176.285156 78.230469 C 176.371094 79.011719 228.105469 237.609375 229.371094 240.960938 C 230.792969 244.730469 236.738281 246.476562 240.894531 244.351562 " fill-opacity="1" fill-rule="evenodd"/></g></g></g><g fill="#ffffff" fill-opacity="1"><g transform="translate(135.021484, 237.233537)"><g><path d="M 16.398438 -4.503906 C 21.417969 -5.882812 24.199219 -10.617188 22.761719 -15.84375 L 11.304688 -57.554688 C 9.050781 -65.753906 9.910156 -74.253906 13.746094 -81.152344 C 17.527344 -88.25 23.859375 -93.296875 32.058594 -95.550781 C 40.152344 -97.773438 48.433594 -96.519531 55.414062 -92.375 C 62.234375 -88.410156 67.421875 -81.566406 69.777344 -73.398438 L 81.179688 -31.890625 C 82.613281 -26.664062 87.726562 -24.101562 92.75 -25.480469 C 97.769531 -26.859375 100.652344 -31.617188 99.214844 -36.84375 L 87.757812 -78.558594 C 84.152344 -91.675781 75.808594 -102.386719 64.75 -108.941406 C 53.386719 -115.40625 40.164062 -117.394531 27.046875 -113.792969 C 14.03125 -110.214844 3.679688 -101.75 -2.582031 -90.441406 C -8.742188 -79.160156 -10.441406 -65.6875 -6.835938 -52.570312 L 4.621094 -10.859375 C 5.324219 -8.296875 6.8125 -6.5 9.238281 -5.292969 C 11.457031 -4.03125 13.835938 -3.800781 16.398438 -4.503906 Z M 16.398438 -4.503906 "/></g></g></g><path stroke-linecap="butt" transform="matrix(0.723206, -0.198679, 0.198679, 0.723206, 80.817743, 41.344156)" fill="none" stroke-linejoin="miter" d="M 23.171465 271.00178 C 30.118515 270.998217 35.360183 265.897238 35.363076 258.671094 L 35.360397 200.995283 C 35.358582 189.657457 39.47215 179.02891 46.839215 171.519502 C 54.209094 163.724597 64.126376 159.476001 75.464202 159.474186 C 86.660411 159.476676 96.861075 164.007424 104.371976 171.801602 C 111.744073 179.314589 115.991348 189.944479 116.13478 201.278 L 116.13387 258.671957 C 116.135999 265.89948 121.805045 271.000136 128.745692 271.000217 C 135.691362 271.001677 141.074647 265.896392 141.07754 258.670248 L 141.074861 200.994437 C 141.077431 182.85758 134.134448 166.134436 122.230213 153.806118 C 109.898864 141.479292 93.600784 134.252612 75.463927 134.250042 C 57.465926 134.253211 41.173483 141.476555 29.127131 153.809337 C 17.222395 166.137814 10.279061 182.859418 10.276491 200.996276 L 10.27917 258.672086 C 10.278081 262.21504 11.55187 265.049573 14.244362 267.458258 C 16.65638 269.865509 19.628512 271.000691 23.171465 271.00178 Z M 23.171465 271.00178 " stroke="#0d1216" stroke-width="17.595072" stroke-opacity="1" stroke-miterlimit="4"/></svg>