<svg xmlns="http://www.w3.org/2000/svg" xmlns:xlink="http://www.w3.org/1999/xlink" width="6912" zoomAndPan="magnify" viewBox="0 0 5184 2592.000001" height="3456" preserveAspectRatio="xMidYMid meet" version="1.0"><defs><g/><clipPath id="f72715c362"><path d="M 3885 423 L 4934 423 L 4934 1809 L 3885 1809 Z M 3885 423 " clip-rule="nonzero"/></clipPath><clipPath id="fc8fe50b3f"><path d="M 4993.5 1600.535156 L 4145.8125 1834.601562 L 3806.386719 605.34375 L 4654.078125 371.277344 Z M 4993.5 1600.535156 " clip-rule="nonzero"/></clipPath><clipPath id="5273e0bb5c"><path d="M 4145.640625 1834.648438 L 4993.332031 1600.582031 L 4653.90625 371.324219 L 3806.21875 605.390625 Z M 4145.640625 1834.648438 " clip-rule="nonzero"/></clipPath></defs><g fill="#ffffff" fill-opacity="1"><g transform="translate(202.505047, 1681.768075)"><g><path d="M 121.28125 0 C 158.425781 0 186.46875 -27.289062 186.46875 -65.945312 L 186.46875 -374.457031 C 186.46875 -435.097656 208.453125 -491.949219 247.867188 -532.121094 C 287.285156 -573.8125 340.347656 -596.554688 400.988281 -596.554688 C 460.871094 -596.554688 515.445312 -572.296875 555.621094 -530.605469 C 595.039062 -490.433594 617.777344 -433.582031 618.535156 -372.941406 L 618.535156 -65.945312 C 618.535156 -27.289062 648.855469 0 686 0 C 723.140625 0 751.945312 -27.289062 751.945312 -65.945312 L 751.945312 -374.457031 C 751.945312 -471.480469 714.804688 -560.925781 651.128906 -626.875 C 585.183594 -692.820312 498.011719 -731.480469 400.988281 -731.480469 C 304.71875 -731.480469 217.546875 -692.820312 153.117188 -626.875 C 89.445312 -560.925781 52.300781 -471.480469 52.300781 -374.457031 L 52.300781 -65.945312 C 52.300781 -46.996094 59.125 -31.835938 73.527344 -18.949219 C 86.414062 -6.0625 102.332031 0 121.28125 0 Z M 121.28125 0 "/></g></g><g transform="translate(1027.219374, 1681.768075)"><g><path d="M 145.539062 -820.925781 C 165.246094 -820.925781 183.4375 -828.503906 199.355469 -843.664062 C 214.515625 -858.066406 222.097656 -875.5 222.097656 -896.726562 C 222.097656 -918.707031 214.515625 -936.140625 199.355469 -950.542969 C 183.4375 -964.945312 166.003906 -972.527344 145.539062 -972.527344 C 124.3125 -972.527344 106.121094 -964.945312 91.71875 -950.542969 C 76.558594 -935.382812 68.980469 -917.191406 68.980469 -896.726562 C 68.980469 -876.257812 76.558594 -858.824219 91.71875 -843.664062 C 106.878906 -828.503906 125.070312 -820.925781 145.539062 -820.925781 Z M 145.539062 5.304688 C 181.921875 5.304688 211.484375 -24.257812 211.484375 -61.398438 L 211.484375 -664.015625 C 211.484375 -701.160156 182.679688 -731.480469 146.296875 -731.480469 C 127.34375 -731.480469 110.667969 -724.65625 97.785156 -711.769531 C 84.140625 -698.882812 77.316406 -682.964844 77.316406 -664.015625 L 77.316406 -61.398438 C 77.316406 -24.257812 108.394531 5.304688 145.539062 5.304688 Z M 145.539062 5.304688 "/></g></g></g><g fill="#ffffff" fill-opacity="1"><g transform="translate(1317.53701, 1681.768075)"><g><path d="M 405.535156 8.339844 C 502.558594 8.339844 594.28125 -27.289062 657.195312 -90.203125 C 672.355469 -105.363281 680.691406 -126.585938 680.691406 -145.539062 C 680.691406 -163.730469 673.113281 -179.648438 657.953125 -194.050781 C 645.824219 -205.421875 627.632812 -211.484375 614.746094 -211.484375 C 604.132812 -211.484375 593.519531 -208.453125 582.152344 -202.386719 L 529.089844 -165.246094 C 488.917969 -137.199219 448.742188 -127.34375 399.472656 -127.34375 C 335.039062 -127.34375 278.191406 -153.875 235.742188 -199.355469 C 194.050781 -241.804688 170.550781 -300.929688 170.550781 -361.570312 C 170.550781 -421.453125 194.808594 -479.0625 234.984375 -522.269531 C 275.15625 -565.476562 332.007812 -592.761719 393.40625 -595.039062 C 444.953125 -595.039062 485.882812 -585.183594 529.089844 -557.136719 L 582.152344 -519.238281 C 592.003906 -513.929688 602.617188 -510.898438 613.988281 -510.898438 C 626.875 -510.898438 645.066406 -516.960938 657.953125 -528.332031 C 673.871094 -541.21875 681.449219 -557.894531 681.449219 -576.84375 C 681.449219 -595.796875 673.113281 -614.746094 657.195312 -632.179688 C 593.519531 -695.851562 502.558594 -731.480469 405.535156 -731.480469 C 303.203125 -731.480469 209.210938 -691.304688 141.746094 -622.324219 C 72.769531 -553.347656 33.351562 -459.355469 33.351562 -357.023438 C 33.351562 -256.964844 73.527344 -165.246094 142.503906 -97.785156 C 211.484375 -31.078125 304.71875 8.339844 405.535156 8.339844 Z M 405.535156 8.339844 "/></g></g><g transform="translate(2033.09797, 1681.768075)"><g><path d="M 138.714844 0 C 175.101562 0 204.664062 -28.804688 204.664062 -65.945312 L 204.664062 -305.476562 L 505.59375 -21.980469 C 519.238281 -8.339844 535.914062 -1.515625 555.621094 -1.515625 C 573.054688 -1.515625 588.214844 -8.339844 601.859375 -21.980469 C 613.988281 -34.109375 621.566406 -51.542969 621.566406 -69.738281 C 621.566406 -87.929688 615.503906 -102.332031 603.375 -113.703125 L 318.363281 -381.277344 L 560.167969 -605.648438 C 574.570312 -618.535156 581.394531 -634.453125 581.394531 -653.402344 C 581.394531 -670.839844 574.570312 -686.757812 560.925781 -700.402344 C 548.039062 -713.285156 532.121094 -720.109375 513.929688 -720.109375 C 495.738281 -720.109375 480.578125 -714.046875 468.449219 -702.675781 L 204.664062 -457.835938 L 205.421875 -927.804688 C 205.421875 -964.1875 177.375 -993.75 138.714844 -993.75 C 121.28125 -993.75 105.363281 -987.6875 91.71875 -974.800781 C 78.074219 -961.914062 71.253906 -946.753906 71.253906 -927.804688 L 71.253906 -65.945312 C 71.253906 -28.804688 101.574219 0 138.714844 0 Z M 138.714844 0 "/></g></g><g transform="translate(2690.2922, 1681.768075)"><g><path d="M 438.128906 8.339844 C 538.1875 8.339844 632.179688 -32.59375 699.644531 -100.058594 C 767.105469 -167.519531 807.28125 -260.753906 807.28125 -360.8125 C 807.28125 -461.628906 767.105469 -554.105469 699.644531 -623.082031 C 632.179688 -690.546875 538.1875 -731.480469 438.128906 -731.480469 C 388.859375 -731.480469 338.070312 -716.320312 295.625 -691.304688 C 253.175781 -666.289062 219.066406 -629.90625 200.871094 -589.730469 L 200.871094 -929.320312 C 200.871094 -968.734375 173.585938 -998.296875 134.925781 -998.296875 C 115.976562 -998.296875 100.058594 -991.476562 87.171875 -978.589844 C 74.285156 -964.1875 67.460938 -948.269531 67.460938 -929.320312 L 67.460938 -360.8125 C 67.460938 -260.753906 107.636719 -167.519531 176.617188 -100.058594 C 244.078125 -32.59375 338.070312 8.339844 438.128906 8.339844 Z M 438.128906 -125.828125 C 373.699219 -125.828125 313.816406 -151.601562 270.609375 -194.808594 C 227.402344 -238.015625 201.628906 -297.140625 201.628906 -360.8125 C 201.628906 -425.242188 227.402344 -484.367188 270.609375 -527.574219 C 313.816406 -570.78125 373.699219 -595.796875 438.128906 -595.796875 C 502.558594 -595.796875 562.441406 -570.78125 605.648438 -527.574219 C 648.855469 -484.367188 673.871094 -425.242188 673.871094 -360.8125 C 673.871094 -297.140625 648.855469 -238.015625 605.648438 -194.808594 C 562.441406 -151.601562 502.558594 -125.828125 438.128906 -125.828125 Z M 438.128906 -125.828125 "/></g></g></g><g fill="#ffffff" fill-opacity="1"><g transform="translate(3530.924727, 1681.768075)"><g><path d="M 145.539062 -820.925781 C 165.246094 -820.925781 183.4375 -828.503906 199.355469 -843.664062 C 214.515625 -858.066406 222.097656 -875.5 222.097656 -896.726562 C 222.097656 -918.707031 214.515625 -936.140625 199.355469 -950.542969 C 183.4375 -964.945312 166.003906 -972.527344 145.539062 -972.527344 C 124.3125 -972.527344 106.121094 -964.945312 91.71875 -950.542969 C 76.558594 -935.382812 68.980469 -917.191406 68.980469 -896.726562 C 68.980469 -876.257812 76.558594 -858.824219 91.71875 -843.664062 C 106.878906 -828.503906 125.070312 -820.925781 145.539062 -820.925781 Z M 145.539062 5.304688 C 181.921875 5.304688 211.484375 -24.257812 211.484375 -61.398438 L 211.484375 -664.015625 C 211.484375 -701.160156 182.679688 -731.480469 146.296875 -731.480469 C 127.34375 -731.480469 110.667969 -724.65625 97.785156 -711.769531 C 84.140625 -698.882812 77.316406 -682.964844 77.316406 -664.015625 L 77.316406 -61.398438 C 77.316406 -24.257812 108.394531 5.304688 145.539062 5.304688 Z M 145.539062 5.304688 "/></g></g></g><g clip-path="url(#f72715c362)"><g clip-path="url(#fc8fe50b3f)"><g clip-path="url(#5273e0bb5c)"><path fill="#ffffff" d="M 4217.402344 1808.597656 C 4209.789062 1808.605469 4200.179688 1805.042969 4194.148438 1799.976562 C 4189.804688 1796.328125 4152.601562 1756.273438 4150.949219 1753.464844 C 4147.371094 1747.390625 4148.21875 1739.496094 4153.425781 1730.394531 C 4159.890625 1719.105469 4158.097656 1720.289062 4225.785156 1682.488281 C 4258.015625 1664.488281 4325.796875 1626.628906 4376.414062 1598.347656 C 4427.035156 1570.070312 4487.175781 1536.46875 4510.070312 1523.683594 L 4551.691406 1500.4375 L 4333.765625 1560.269531 L 4115.835938 1620.109375 L 4110.660156 1619.6875 C 4095.316406 1618.449219 4084.382812 1610.34375 4080.226562 1597.121094 C 4078.429688 1591.410156 3887.386719 626.074219 3886.265625 617.046875 C 3884.464844 602.53125 3891.097656 588.027344 3902.882812 580.71875 C 3907.246094 578.011719 4467.820312 423.070312 4473.417969 423.023438 C 4486.671875 422.910156 4499.035156 430.738281 4505.53125 443.347656 C 4506.734375 445.6875 4577.6875 643.015625 4668.292969 896 C 4756.632812 1142.675781 4829.132812 1344.628906 4829.394531 1344.777344 C 4829.65625 1344.925781 4839.949219 1339.390625 4852.265625 1332.476562 C 4874.601562 1319.9375 4874.679688 1319.898438 4882.523438 1317.757812 C 4896.328125 1313.984375 4908.167969 1315.957031 4914.40625 1323.070312 C 4917.121094 1326.164062 4933.277344 1383.648438 4933.566406 1391.234375 C 4934.023438 1403.300781 4928.550781 1414.691406 4918.949219 1421.652344 C 4916.851562 1423.175781 4714.757812 1536.464844 4684.46875 1553.097656 C 4683.222656 1553.78125 4683.234375 1554.144531 4684.652344 1559.316406 C 4690.753906 1581.589844 4688.109375 1604.679688 4677.804688 1619.074219 C 4672.339844 1626.714844 4668.132812 1629.796875 4645.742188 1642.574219 C 4577.324219 1681.625 4550.605469 1696.550781 4546.085938 1698.230469 C 4524.988281 1706.085938 4498.519531 1697.25 4477 1675.171875 C 4474.929688 1673.046875 4473.101562 1671.34375 4472.941406 1671.386719 C 4472.78125 1671.429688 4442 1688.589844 4404.535156 1709.519531 C 4215.136719 1815.324219 4233.78125 1805.097656 4226.867188 1806.941406 C 4223.453125 1807.851562 4219.191406 1808.597656 4217.402344 1808.597656 M 4249.539062 1532.46875 C 4265.503906 1523.125 4279.496094 1496.566406 4277.144531 1480.082031 C 4275.542969 1468.882812 4078.304688 607.746094 4076.5625 604.347656 C 4060.828125 573.679688 4014.785156 586.453125 4015.378906 621.320312 C 4015.488281 627.785156 4189.070312 1505.140625 4190.929688 1508.628906 C 4200.964844 1527.453125 4234.679688 1541.167969 4249.539062 1532.46875 M 4468.484375 1466.617188 C 4481.605469 1459.140625 4492.417969 1445.53125 4493.453125 1435.1875 L 4493.859375 1431.140625 L 4366.691406 993.933594 C 4240.546875 560.246094 4239.503906 556.691406 4237.078125 553 C 4217.230469 522.753906 4171.511719 541.082031 4177.808594 576.753906 C 4178.660156 581.582031 4391.105469 1394.640625 4404.453125 1444.167969 L 4407.640625 1455.988281 L 4410.789062 1459.53125 C 4423.054688 1473.320312 4450.746094 1476.722656 4468.484375 1466.617188 M 4679.335938 1400.84375 C 4698.3125 1391.140625 4709.796875 1373.777344 4705.828125 1360.78125 C 4702.058594 1348.433594 4404.746094 518.835938 4402.84375 515.347656 C 4395.164062 501.292969 4379.476562 494.054688 4365.222656 497.992188 C 4350.527344 502.050781 4339.730469 517.25 4341.257812 531.726562 C 4341.6875 535.804688 4612.390625 1365.582031 4619.007812 1383.109375 C 4626.453125 1402.824219 4657.574219 1411.972656 4679.335938 1400.84375 " fill-opacity="1" fill-rule="evenodd"/></g></g></g></svg>